<?xml version="1.0"?>
<svg xmlns="http://www.w3.org/2000/svg" xmlns:xlink="http://www.w3.org/1999/xlink" xmlns:svgjs="http://svgjs.com/svgjs" version="1.1" width="512" height="512" x="0" y="0" viewBox="0 0 24 24" style="enable-background:new 0 0 512 512" xml:space="preserve"><g><path xmlns="http://www.w3.org/2000/svg" d="m21.25 4c-.04 0-.08.02-.12.03-.05-.01-.09-.03-.13-.03h-1v-3c0-.55-.45-1-1-1h-15c-1.48 0-2.71 1.08-2.95 2.5-.03.08-.05.16-.05.25v18.5c0 1.52 1.23 2.75 2.75 2.75h17.5c.41 0 .75-.34.75-.75v-18.5c0-.41-.34-.75-.75-.75zm-9.75 16.5c-3.58 0-6.5-2.92-6.5-6.5s2.92-6.5 6.5-6.5 6.5 2.92 6.5 6.5-2.92 6.5-6.5 6.5zm6.5-16.5h-14c-.55 0-1-.45-1-1s.45-1 1-1h14z" fill="#1d4078" data-original="#000000" style=""/><g xmlns="http://www.w3.org/2000/svg"><path d="m13 16.5c-.256 0-.512-.098-.707-.293l-1.5-1.5c-.188-.187-.293-.441-.293-.707v-3c0-.553.448-1 1-1s1 .447 1 1v2.586l1.207 1.207c.391.391.391 1.023 0 1.414-.195.195-.451.293-.707.293z" fill="#1d4078" data-original="#000000" style=""/></g></g></svg>
